<svg id="visual" viewBox="0 0 1920 1080" width="1920" height="1080" xmlns="http://www.w3.org/2000/svg" xmlns:xlink="http://www.w3.org/1999/xlink" version="1.1"><rect x="0" y="0" width="1920" height="1080" fill="#FFFFFF"></rect><defs><linearGradient id="grad1_0" x1="43.8%" y1="0%" x2="100%" y2="100%"><stop offset="14.444444444444446%" stop-color="#ffffff" stop-opacity="1"></stop><stop offset="85.55555555555554%" stop-color="#ffffff" stop-opacity="1"></stop></linearGradient></defs><defs><linearGradient id="grad2_0" x1="0%" y1="0%" x2="56.3%" y2="100%"><stop offset="14.444444444444446%" stop-color="#ffffff" stop-opacity="1"></stop><stop offset="85.55555555555554%" stop-color="#ffffff" stop-opacity="1"></stop></linearGradient></defs><g transform="translate(1920, 0)"><path d="M0 540C-74.2 491.7 -148.4 443.4 -233.5 404.4C-318.6 365.5 -414.7 335.8 -467.7 270C-520.6 204.2 -530.3 102.1 -540 0L0 0Z" fill="#284B63"></path></g><g transform="translate(0, 1080)"><path d="M0 -540C99.5 -528.8 199.1 -517.6 270 -467.7C340.9 -417.7 383.3 -328.9 423.5 -244.5C463.7 -160.1 501.9 -80 540 0L0 0Z" fill="#284B63"></path></g></svg>